<svg xmlns="http://www.w3.org/2000/svg" data-name="Layer 1" viewBox="0 0 64 64"><path fill="#f5db1b" d="M32,56.93C8.17,47.85,12.71,12.67,12.71,12.67,17.25,7,32,7,32,7s14.75,0,19.29,5.67C51.29,12.67,55.83,47.85,32,56.93Z"/><path fill="#e8c80c" d="M32,56.93V7s14.75,0,19.29,5.67C51.29,12.67,55.83,47.85,32,56.93Z"/><path fill="#f5db1b" d="M32,58l-.36-.14c-24.28-9.25-20-45-19.92-45.32l0-.27.18-.22C16.71,6.07,31.38,6,32,6s15.29.07,20.07,6.05l.18.22,0,.27c0,.36,4.36,36.07-19.93,45.32ZM13.67,13.08c-.35,3.3-3,34.31,18.33,42.78,21.33-8.48,18.68-39.48,18.33-42.78C45.94,8.06,32.14,8,32,8S18.06,8.06,13.67,13.08Z"/><path fill="#e8c80c" d="M52.28,12.54l0-.27-.17-.22C47.29,6.07,32.62,6,32,6V8c.14,0,13.94.06,18.33,5.08.35,3.31,3,34.29-18.33,42.78V58l.36-.14C56.65,48.61,52.33,12.9,52.28,12.54Z"/><circle cx="32" cy="34.96" r="6.99" fill="#e92744"/><path fill="#ce092f" d="M39,35a7,7,0,0,1-7,7V28A7,7,0,0,1,39,35Z"/><path fill="#e92744" d="M32,43a8,8,0,1,1,8-8A8,8,0,0,1,32,43Zm0-14a6,6,0,1,0,6,6A6,6,0,0,0,32,29Z"/><path fill="#ce092f" d="M32,27v2a6,6,0,1,1,0,12v2a8,8,0,1,0,0-16Z"/><rect width="11.98" height="2" x="26.01" y="14.99" fill="#282828"/><rect width="5.99" height="2" x="32" y="14.99"/><rect width="23.97" height="2" x="20.02" y="20.98" fill="#282828"/><rect width="11.98" height="2" x="32" y="20.98"/></svg>